<svg height="350" version="1.1" width="700" xmlns="http://www.w3.org/2000/svg"  style="overflow: hidden; position: relative;">
<desc style="-webkit-tap-highlight-color: rgba(0, 0, 0, 0);">Created with Raphaël 2.0.1</desc>
<!--
    https://publicdomainvectors.org/svg-generator.php
<defs style="-webkit-tap-highlight-color: rgba(0, 0, 0, 0);"></defs>
<rect x="0" y="0" width="1148" height="678" r="0" rx="0" ry="0" fill="#ffffff" stroke="none" style="-webkit-tap-highlight-color: rgba(0, 0, 0, 0);"></rect>
-->
<path fill="none" stroke="#000" d="M374,19Q654,-41,148,96" stroke-width="1" opacity="0.3"></path>

<path fill="none" stroke="#000" d="M374,19Q323,331,148,96" stroke-width="1" opacity="0.3"></path>
<path fill="none" stroke="#000" d="M374,19Q-131,37,148,96" stroke-width="3" opacity="0.3"></path>
<path fill="none" stroke="#000" d="M374,19Q877,730,148,96" stroke-width="3" opacity="0.3"></path>
<path fill="none" stroke="#000" d="M374,19Q-168,847,148,96" stroke-width="1" opacity="0.3"></path>
<path fill="none" stroke="#000" d="M374,19Q1033,196,148,96" stroke-width="3" opacity="0.3"></path>
<path fill="none" stroke="#000" d="M374,19Q1127,316,148,96" stroke-width="3" opacity="0.3"></path>
<path fill="none" stroke="#000" d="M374,19Q131,576,148,96" stroke-width="2" opacity="0.3"></path>
<path fill="none" stroke="#000" d="M374,19Q792,719,148,96" stroke-width="2" opacity="0.3"></path>
<path fill="none" stroke="#000" d="M374,19Q1006,162,148,96" stroke-width="2" opacity="0.3"></path>
<path fill="none" stroke="#000" d="M374,19Q376,501,148,96" stroke-width="1" opacity="0.3"></path>
<path fill="none" stroke="#000" d="M374,19Q182,724,148,96" stroke-width="2" opacity="0.3"></path>
<path fill="none" stroke="#000" d="M374,19Q301,292,148,96" stroke-width="3" opacity="0.3"></path>
<path fill="none" stroke="#000" d="M374,19Q-94,-13,148,96" stroke-width="2" opacity="0.3"></path>
<path fill="none" stroke="#000" d="M374,19Q-73,-190,148,96" stroke-width="1" opacity="0.3"></path>
<path fill="none" stroke="#000" d="M374,19Q1253,895,148,96" stroke-width="2" opacity="0.3"></path>
<path fill="none" stroke="#000" d="M374,19Q1330,155,148,96" stroke-width="1" opacity="0.3"></path>
<path fill="none" stroke="#000" d="M374,19Q-108,-36,148,96" stroke-width="2" opacity="0.3"></path>
<path fill="none" stroke="#000" d="M374,19Q878,539,148,96" stroke-width="2" opacity="0.3"></path>
<path fill="none" stroke="#000" d="M374,19Q-26,647,148,96" stroke-width="1" opacity="0.3"></path>
<path fill="none" stroke="#000" d="M374,19Q734,428,148,96" stroke-width="2" opacity="0.3"></path>
<path fill="none" stroke="#000" d="M374,19Q1218,-85,148,96" stroke-width="1" opacity="0.3"></path>
<path fill="none" stroke="#000" d="M374,19Q471,739,148,96" stroke-width="2" opacity="0.3"></path>
<path fill="none" stroke="#000" d="M374,19Q1330,865,148,96" stroke-width="3" opacity="0.3"></path>
<path fill="none" stroke="#000" d="M374,19Q474,727,148,96" stroke-width="2" opacity="0.3"></path>
<path fill="none" stroke="#000" d="M374,19Q682,770,148,96" stroke-width="3" opacity="0.3"></path>
<path fill="none" stroke="#000" d="M374,19Q-42,216,148,96" stroke-width="3" opacity="0.3"></path>
<path fill="none" stroke="#000" d="M374,19Q773,-102,148,96" stroke-width="1" opacity="0.3"></path>
<path fill="none" stroke="#000" d="M374,19Q-80,771,148,96" stroke-width="3" opacity="0.3"></path>
<path fill="none" stroke="#000" d="M374,19Q-219,353,148,96" stroke-width="1" opacity="0.3"></path>
<path fill="none" stroke="#000" d="M374,19Q-83,388,148,96" stroke-width="3" opacity="0.3"></path>
<path fill="none" stroke="#000" d="M374,19Q675,-144,148,96" stroke-width="2" opacity="0.3"></path>
<path fill="none" stroke="#000" d="M374,19Q508,108,148,96" stroke-width="3" opacity="0.3"></path>
<path fill="none" stroke="#000" d="M374,19Q5,-136,148,96" stroke-width="3" opacity="0.3"></path>
<path fill="none" stroke="#000" d="M374,19Q724,881,148,96" stroke-width="1" opacity="0.3"></path>
<path fill="none" stroke="#000" d="M374,19Q1023,723,148,96" stroke-width="1" opacity="0.3"></path>
<path fill="none" stroke="#000" d="M374,19Q311,495,148,96" stroke-width="2" opacity="0.3"></path>
<path fill="none" stroke="#000" d="M374,19Q1147,508,148,96" stroke-width="2" opacity="0.3"></path>
<path fill="none" stroke="#000" d="M374,19Q773,-191,148,96" stroke-width="2" opacity="0.3"></path>
<path fill="none" stroke="#000" d="M374,19Q80,143,148,96" stroke-width="3" opacity="0.3"></path>
<path fill="none" stroke="#000" d="M374,19Q1349,397,148,96" stroke-width="3" opacity="0.3"></path>
<path fill="none" stroke="#000" d="M374,19Q609,355,148,96" stroke-width="2" opacity="0.3"></path>
<path fill="none" stroke="#000" d="M374,19Q181,873,148,96" stroke-width="1" opacity="0.3"></path>
<path fill="none" stroke="#000" d="M374,19Q987,223,148,96" stroke-width="2" opacity="0.3"></path>
<path fill="none" stroke="#000" d="M374,19Q1076,437,148,96" stroke-width="3" opacity="0.3"></path>
<path fill="none" stroke="#000" d="M374,19Q1133,413,148,96" stroke-width="3" opacity="0.3"></path>
<path fill="none" stroke="#000" d="M374,19Q437,-25,148,96" stroke-width="2" opacity="0.3"></path>
<path fill="none" stroke="#000" d="M374,19Q1265,113,148,96" stroke-width="3" opacity="0.3"></path>
<path fill="none" stroke="#000" d="M374,19Q431,708,148,96" stroke-width="3" opacity="0.3"></path>
<path fill="none" stroke="#000" d="M374,19Q796,776,148,96" stroke-width="2" opacity="0.3"></path>
<path fill="none" stroke="#000" d="M374,19Q496,516,148,96" stroke-width="2" opacity="0.3"></path>
<path fill="none" stroke="#000" d="M374,19Q347,-96,148,96" stroke-width="1" opacity="0.3"></path>
<path fill="none" stroke="#000" d="M374,19Q433,2,148,96" stroke-width="3" opacity="0.3"></path>
<path fill="none" stroke="#000" d="M374,19Q1011,93,148,96" stroke-width="1" opacity="0.3"></path>
<path fill="none" stroke="#000" d="M374,19Q-80,656,148,96" stroke-width="1" opacity="0.3"></path>
<path fill="none" stroke="#000" d="M374,19Q456,334,148,96" stroke-width="1" opacity="0.3"></path>
<path fill="none" stroke="#000" d="M374,19Q930,437,148,96" stroke-width="2" opacity="0.3"></path>
<path fill="none" stroke="#000" d="M374,19Q945,-163,148,96" stroke-width="1" opacity="0.3"></path>
<path fill="none" stroke="#000" d="M374,19Q-165,71,148,96" stroke-width="2" opacity="0.3"></path>
<path fill="none" stroke="#000" d="M374,19Q1262,-185,148,96" stroke-width="1" opacity="0.3"></path>
<path fill="none" stroke="#000" d="M374,19Q384,310,148,96" stroke-width="3" opacity="0.3"></path>
<path fill="none" stroke="#000" d="M374,19Q1317,111,148,96" stroke-width="3" opacity="0.3"></path>
<path fill="none" stroke="#000" d="M374,19Q893,861,148,96" stroke-width="3" opacity="0.3"></path>
<path fill="none" stroke="#000" d="M374,19Q794,644,148,96" stroke-width="2" opacity="0.3"></path>
<path fill="none" stroke="#000" d="M374,19Q1132,166,148,96" stroke-width="3" opacity="0.3"></path>
<path fill="none" stroke="#000" d="M374,19Q-99,706,148,96" stroke-width="2" opacity="0.3"></path>
<path fill="none" stroke="#000" d="M374,19Q930,633,148,96" stroke-width="1" opacity="0.3"></path>
<path fill="none" stroke="#000" d="M374,19Q487,-216,148,96" stroke-width="1" opacity="0.3"></path>
<path fill="none" stroke="#000" d="M374,19Q931,239,148,96" stroke-width="3" opacity="0.3"></path>
<path fill="none" stroke="#000" d="M374,19Q178,3,148,96" stroke-width="3" opacity="0.3"></path>
<path fill="none" stroke="#000" d="M374,19Q149,744,148,96" stroke-width="1" opacity="0.3"></path>
<path fill="none" stroke="#000" d="M374,19Q72,-192,148,96" stroke-width="2" opacity="0.3"></path>
<path fill="none" stroke="#000" d="M374,19Q1185,842,148,96" stroke-width="2" opacity="0.3"></path>
<path fill="none" stroke="#000" d="M374,19Q267,764,148,96" stroke-width="2" opacity="0.3"></path>
<path fill="none" stroke="#000" d="M374,19Q-123,259,148,96" stroke-width="2" opacity="0.3"></path>
<path fill="none" stroke="#000" d="M374,19Q473,462,148,96" stroke-width="3" opacity="0.3"></path>
<path fill="none" stroke="#000" d="M374,19Q488,351,148,96" stroke-width="3" opacity="0.3"></path>
<path fill="none" stroke="#000" d="M374,19Q669,105,148,96" stroke-width="2" opacity="0.3"></path>
<path fill="none" stroke="#000" d="M374,19Q804,396,148,96" stroke-width="1" opacity="0.3"></path>
<path fill="none" stroke="#000" d="M374,19Q575,688,148,96" stroke-width="1" opacity="0.3"></path>
<path fill="none" stroke="#000" d="M374,19Q832,91,148,96" stroke-width="2" opacity="0.3"></path>
<path fill="none" stroke="#000" d="M374,19Q607,341,148,96" stroke-width="3" opacity="0.3"></path>
<path fill="none" stroke="#000" d="M374,19Q-46,35,148,96" stroke-width="1" opacity="0.3"></path>
<path fill="none" stroke="#000" d="M374,19Q750,515,148,96" stroke-width="1" opacity="0.3"></path>
<path fill="none" stroke="#000" d="M374,19Q957,307,148,96" stroke-width="3" opacity="0.3"></path>
<path fill="none" stroke="#000" d="M374,19Q820,356,148,96" stroke-width="3" opacity="0.3"></path>
<path fill="none" stroke="#000" d="M374,19Q297,560,148,96" stroke-width="2" opacity="0.3"></path>
<path fill="none" stroke="#000" d="M374,19Q253,56,148,96" stroke-width="3" opacity="0.3"></path>
<path fill="none" stroke="#000" d="M374,19Q166,47,148,96" stroke-width="3" opacity="0.3"></path>
<path fill="none" stroke="#000" d="M374,19Q339,150,148,96" stroke-width="1" opacity="0.3"></path>
<path fill="none" stroke="#000" d="M374,19Q686,358,148,96" stroke-width="1" opacity="0.3"></path>
<path fill="none" stroke="#000" d="M374,19Q1083,667,148,96" stroke-width="2" opacity="0.3"></path>
<path fill="none" stroke="#000" d="M374,19Q640,249,148,96" stroke-width="3" opacity="0.3"></path>
<path fill="none" stroke="#000" d="M374,19Q3,667,148,96" stroke-width="2" opacity="0.3"></path>
<path fill="none" stroke="#000" d="M374,19Q376,-34,148,96" stroke-width="2" opacity="0.3"></path>
<path fill="none" stroke="#000" d="M374,19Q1102,-103,148,96" stroke-width="1" opacity="0.3"></path>
<path fill="none" stroke="#000" d="M374,19Q630,-25,148,96" stroke-width="2" opacity="0.3"></path>
<path fill="none" stroke="#000" d="M374,19Q-52,401,148,96" stroke-width="1" opacity="0.3"></path>
<path fill="none" stroke="#000" d="M374,19Q598,801,148,96" stroke-width="3" opacity="0.3"></path>
<path fill="none" stroke="#000" d="M374,19Q0,-161,148,96" stroke-width="1" opacity="0.3"></path>
<path fill="none" stroke="#000" d="M374,19Q1338,-190,148,96" stroke-width="1" opacity="0.3"></path>
</svg>